<svg viewBox="0 0 157 157" xmlns="http://www.w3.org/2000/svg">
  <defs>
    <style>
      .cls-1 {
        fill: #231f20;
      }
    </style>
  </defs>
  <g data-name="Layer 2" id="Layer_2">
    <g data-name="Layer 1" id="Layer_1-2">
      <g>
        <path d="M77.05664,122.92969h-.88281l-.11621-.88184c-4.41016-32.40576-7.793-35.78808-40.21094-40.20068l-.86523-.11768-.00586-1.7622.87109-.11475c32.418-4.41309,35.80078-7.79541,40.21191-40.21143l.11817-.86523L77.93848,38.77l.11621.88184c4.41113,32.40576,7.79394,35.78759,40.21094,40.20068l.86523.11767.00586,1.76221-.88184.11621c-32.40625,4.41114-35.78906,7.793-40.20117,40.21l-.11816.86524ZM42.88965,80.8501c25.13672,3.9541,30.21387,9.03369,34.167,34.16455,3.9541-25.13135,9.03711-30.21192,34.167-34.165-25.13672-3.95459-30.21386-9.03418-34.168-34.16455C73.10254,71.81592,68.01953,76.89648,42.88965,80.8501Z" class="cls-1"></path>
        <path d="M49.78418,64.2334h-1l-.002-.93311c-1.293-9.47363-2.07032-10.23193-11.584-11.52685l-.94043-.12793.15235-1.86524.85449-.00146c9.45117-1.28955,10.22754-2.0669,11.51758-11.51709v-.93213l2.002-.002.002.9331c1.29,9.45166,2.06543,10.228,11.5166,11.51807h.81739l.21679,1.75732-.96679.23731c-9.51367,1.29492-10.291,2.05224-11.584,11.52588v.93213ZM42.94531,50.77979c4.0625,1.062,5.77442,2.77343,6.83887,6.84277,1.06445-4.06641,2.77637-5.77783,6.8418-6.8418-4.06641-1.06445-5.77735-2.77637-6.8418-6.84277C48.7207,48.00293,47.00879,49.71582,42.94531,50.77979Z" class="cls-1"></path>
        <path d="M106.585,118.93213l-.43066-.85742-.02246-.16407c-1.29395-9.51464-2.05176-10.2915-11.52539-11.584h-.81739l-.21679-1.75732.96679-.23731c9.53711-1.29834,10.2959-2.05664,11.59278-11.59277l.0625-.23682.30664-.7666,1.625.31055.001.75879c1.293,9.47363,2.07032,10.23193,11.584,11.52685l.94043.12793-.15235,1.86524-.85449.00146c-9.47363,1.29248-10.23144,2.06934-11.52637,11.584l-.09277.68067Zm-6.30078-13.60742c4.06445,1.064,5.77734,2.77636,6.84082,6.84179,1.06445-4.06445,2.77539-5.77685,6.83887-6.84082-4.0625-1.0625-5.77442-2.77343-6.83887-6.84179C106.06152,102.54883,104.34863,104.26074,100.28418,105.32471Z" class="cls-1"></path>
        <path d="M78.5,157A78.5,78.5,0,1,1,157,78.5,78.58876,78.58876,0,0,1,78.5,157Zm0-155A76.5,76.5,0,1,0,155,78.5,76.58647,76.58647,0,0,0,78.5,2Z" class="cls-1"></path>
      </g>
    </g>
  </g>
</svg>
